<?xml version="1.0" encoding="UTF-8" standalone="no"?>
<!-- Created with Inkscape (http://www.inkscape.org/) -->

<svg
   width="300"
   height="75"
   viewBox="0 0 79.374998 19.84375"
   version="1.1"
   id="svg5"
   inkscape:version="1.1.2 (0a00cf5339, 2022-02-04)"
   sodipodi:docname="logo.svg"
   xmlns:inkscape="http://www.inkscape.org/namespaces/inkscape"
   xmlns:sodipodi="http://sodipodi.sourceforge.net/DTD/sodipodi-0.dtd"
   xmlns="http://www.w3.org/2000/svg"
   xmlns:svg="http://www.w3.org/2000/svg">
  <sodipodi:namedview
     id="namedview7"
     pagecolor="#ffffff"
     bordercolor="#666666"
     borderopacity="1.0"
     inkscape:pageshadow="2"
     inkscape:pageopacity="0.0"
     inkscape:pagecheckerboard="0"
     inkscape:document-units="mm"
     showgrid="false"
     units="px"
     inkscape:zoom="2.8284271"
     inkscape:cx="143.54268"
     inkscape:cy="11.490485"
     inkscape:window-width="1860"
     inkscape:window-height="1043"
     inkscape:window-x="0"
     inkscape:window-y="0"
     inkscape:window-maximized="1"
     inkscape:current-layer="layer1">
    <inkscape:grid
       type="xygrid"
       id="grid38148" />
  </sodipodi:namedview>
  <defs
     id="defs2">
    <rect
       x="129.55428"
       y="144.20695"
       width="540.60376"
       height="108.89862"
       id="rect6771" />
    <rect
       x="129.55428"
       y="144.20695"
       width="1596.9894"
       height="206.66003"
       id="rect6771-3" />
  </defs>
  <g
     inkscape:label="Layer 1"
     inkscape:groupmode="layer"
     id="layer1">
    <g
       aria-label="DWPRS"
       transform="matrix(0.25304546,0,0,0.25304546,-16.414385,-33.785075)"
       id="text6769"
       style="font-size:40px;line-height:1.25;font-family:Michroma;-inkscape-font-specification:Michroma;white-space:pre;shape-inside:url(#rect6771)">
      <path
         d="m 133.38281,181.7345 v -30 h 22.26563 q 4.39453,0 7.22656,0.52735 2.83203,0.52734 4.41406,2.05078 1.60156,1.50391 2.22656,4.39453 0.64454,2.89063 0.64454,7.63672 v 0.78125 q 0,4.58984 -0.64454,7.48047 -0.625,2.87109 -2.22656,4.43359 -1.58203,1.54297 -4.41406,2.12891 -2.83203,0.5664 -7.22656,0.5664 z m 3.75,-3.24218 h 18.51563 q 3.49609,0 5.625,-0.33203 2.1289,-0.33204 3.24218,-1.44532 1.11329,-1.11328 1.50391,-3.39843 0.39063,-2.28516 0.39063,-6.19141 v -0.78125 q 0,-3.24219 -0.23438,-5.35156 -0.23437,-2.10938 -0.87891,-3.32032 -0.625,-1.23046 -1.83593,-1.79687 -1.19141,-0.58594 -3.10547,-0.74219 -1.91406,-0.15625 -4.70703,-0.15625 h -18.51563 z"
         id="path38150"
         style="fill:#c87137" />
      <path
         d="m 188.91016,181.7345 -14.7461,-30 h 4.31641 l 12.92969,26.81641 12.1875,-26.81641 h 4.375 l 12.1875,26.81641 11.67968,-26.81641 h 4.31641 l -13.49609,30 h -5 l -11.875,-26.23046 -11.875,26.23046 z"
         id="path38152"
         style="fill:#c87137" />
      <path
         d="m 241.48828,181.7345 v -30 h 20.07813 q 4.39453,0 7.07031,0.42969 2.69531,0.42969 4.08203,1.44531 1.38672,0.9961 1.875,2.71485 0.48828,1.69922 0.48828,4.23828 v 0.78125 q 0,2.42187 -0.50781,4.12109 -0.48828,1.67969 -1.91406,2.71485 -1.42579,1.03515 -4.1211,1.52343 -2.69531,0.46875 -7.08984,0.46875 h -16.21094 v 11.5625 z m 29.84375,-21.17187 q 0,-1.85547 -0.35156,-2.96875 -0.35156,-1.11328 -1.40625,-1.67969 -1.05469,-0.5664 -3.14453,-0.74219 -2.08985,-0.19531 -5.58594,-0.19531 h -15.60547 v 11.95313 h 15.60547 q 3.49609,0 5.58594,-0.21485 2.08984,-0.23437 3.14453,-0.82031 1.05469,-0.60547 1.40625,-1.69922 0.35156,-1.11328 0.35156,-2.85156 z"
         id="path38154"
         style="fill:#c87137" />
      <path
         d="m 280.375,151.7345 h 20.07812 q 4.39454,0 7.07032,0.39063 2.69531,0.39062 4.08203,1.34766 1.38672,0.95703 1.875,2.61718 0.48828,1.66016 0.48828,4.19922 v 0.78125 q 0,2.34375 -0.56641,4.04297 -0.54687,1.67969 -2.1289,2.73438 -1.58203,1.03515 -4.6875,1.46484 l 6.52343,12.42187 h -3.75 l -6.38671,-12.14843 q -0.39063,0.0195 -0.82032,0.0195 -0.41015,0 -0.85937,0 H 284.125 v 12.1289 h -3.75 z m 3.75,14.62891 h 16.58203 q 3.33984,0 5.25391,-0.21484 1.93359,-0.23438 2.83203,-0.80078 0.91797,-0.56641 1.17187,-1.60157 0.25391,-1.03515 0.25391,-2.67578 v -0.78125 q 0,-1.85547 -0.35156,-2.92969 -0.35157,-1.07421 -1.40625,-1.58203 -1.05469,-0.50781 -3.14453,-0.64453 -2.08985,-0.15625 -5.58594,-0.15625 H 284.125 Z"
         id="path38156"
         style="fill:#c87137" />
      <path
         d="m 352.99219,173.06263 q 0,-1.73828 -0.27344,-2.73438 -0.27344,-0.99609 -1.23047,-1.46484 -0.95703,-0.48828 -2.96875,-0.625 -2.01172,-0.15625 -5.50781,-0.21484 l -10.85938,-0.15625 q -4.02343,-0.0586 -6.46484,-0.48828 -2.44141,-0.42969 -3.69141,-1.34766 -1.25,-0.9375 -1.67968,-2.5 -0.41016,-1.5625 -0.41016,-3.90625 0,-2.55859 0.56641,-4.21875 0.58593,-1.66016 2.08984,-2.59766 1.52344,-0.9375 4.29687,-1.30859 2.77344,-0.39063 7.16797,-0.39063 h 8.35938 q 3.98437,0 6.64062,0.25391 2.65625,0.25391 4.21875,1.17188 1.5625,0.91796 2.22657,2.85156 0.68359,1.93359 0.68359,5.3125 h -3.75 q 0,-2.61719 -0.50781,-3.94531 -0.48828,-1.34766 -1.64063,-1.83594 -1.13281,-0.48828 -3.0664,-0.52735 -1.9336,-0.0391 -4.80469,-0.0391 h -8.16406 q -3.4961,0 -5.60547,0.13672 -2.08985,0.13672 -3.16407,0.625 -1.07421,0.48828 -1.44531,1.5625 -0.35156,1.07422 -0.35156,2.94922 0,1.58203 0.25391,2.53906 0.2539,0.95703 1.13281,1.46485 0.89844,0.48828 2.7539,0.68359 1.85547,0.17578 5.0586,0.21484 l 11.64062,0.15625 q 4.10157,0.0586 6.54297,0.48828 2.46094,0.41016 3.67188,1.34766 1.23047,0.9375 1.62109,2.53906 0.41016,1.58203 0.41016,4.00391 0,2.63672 -0.50782,4.43359 -0.48828,1.77735 -1.91406,2.85157 -1.42578,1.07421 -4.12109,1.54296 -2.69531,0.46875 -7.08985,0.46875 h -9.14062 q -4.00391,0 -6.71875,-0.35156 -2.71484,-0.35156 -4.33594,-1.40625 -1.60156,-1.07422 -2.30469,-3.18359 -0.70312,-2.10938 -0.70312,-5.625 h 3.75 q 0,2.7539 0.44922,4.25781 0.44922,1.50391 1.5625,2.16797 1.13281,0.64453 3.14453,0.78125 2.03125,0.11719 5.15625,0.11719 h 8.94531 q 3.4961,0 5.52735,-0.21485 2.03125,-0.23437 3.00781,-0.85937 0.97656,-0.64453 1.25,-1.83594 0.29297,-1.19141 0.29297,-3.14453 z"
         id="path38158"
         style="fill:#c87137" />
    </g>
    <g
       aria-label="Decentrlised Web-based Publishing Retrieval System"
       transform="matrix(0.04166682,0,0,0.04453029,5.1679855,24.82057)"
       id="text6769-7"
       style="font-size:40px;line-height:1.25;font-family:Michroma;-inkscape-font-specification:Michroma;white-space:pre;shape-inside:url(#rect6771-3);fill:#000000">
      <path
         d="m 292.04527,-224.65379 v -30 h 22.26563 q 4.39453,0 7.22656,0.52735 2.83203,0.52734 4.41406,2.05078 1.60156,1.50391 2.22656,4.39453 0.64454,2.89063 0.64454,7.63672 v 0.78125 q 0,4.58984 -0.64454,7.48047 -0.625,2.87109 -2.22656,4.43359 -1.58203,1.54297 -4.41406,2.12891 -2.83203,0.5664 -7.22656,0.5664 z m 3.75,-3.24218 h 18.51563 q 3.49609,0 5.625,-0.33203 2.1289,-0.33204 3.24218,-1.44532 1.11329,-1.11328 1.50391,-3.39843 0.39063,-2.28516 0.39063,-6.19141 v -0.78125 q 0,-3.24219 -0.23438,-5.35156 -0.23437,-2.10938 -0.87891,-3.32032 -0.625,-1.23046 -1.83593,-1.79687 -1.19141,-0.58594 -3.10547,-0.74219 -1.91406,-0.15625 -4.70703,-0.15625 h -18.51563 z"
         id="path38161"
         style="fill:#000000" />
      <path
         d="m 359.58433,-231.33347 q 0,2.51953 -0.76171,3.96484 -0.74219,1.44531 -2.28516,2.10938 -1.54297,0.66406 -3.94531,0.83984 -2.38282,0.19531 -5.6836,0.19531 -3.76953,0 -6.40625,-0.39062 -2.61718,-0.3711 -4.23828,-1.54297 -1.60156,-1.19141 -2.34375,-3.55469 -0.72265,-2.36328 -0.72265,-6.30859 0,-3.82813 0.70312,-6.13282 0.72266,-2.30468 2.32422,-3.47656 1.60156,-1.17187 4.19922,-1.5625 2.61719,-0.39062 6.38672,-0.39062 4.3164,0 7.14843,0.60547 2.83204,0.60546 4.21875,2.30468 1.40625,1.69922 1.40625,4.98047 v 4.82422 h -22.61718 q 0.0195,2.5 0.35156,4.00391 0.33203,1.5039 1.32812,2.26562 0.9961,0.76172 2.96875,1.01563 1.99219,0.23437 5.29297,0.23437 2.96875,0 4.78516,-0.11719 1.83594,-0.11718 2.77344,-0.50781 0.95703,-0.41015 1.28906,-1.21094 0.33203,-0.80078 0.33203,-2.14843 z m -12.77343,-13.125 q -3.1836,0 -5.13672,0.23437 -1.9336,0.23438 -2.94922,0.91797 -1.01563,0.66406 -1.38672,1.99219 -0.35156,1.32812 -0.37109,3.49609 h 19.02343 v -1.875 q 0,-1.40625 -0.33203,-2.32422 -0.3125,-0.9375 -1.25,-1.46484 -0.9375,-0.54688 -2.77343,-0.76172 -1.81641,-0.21484 -4.82422,-0.21484 z"
         id="path38163"
         style="fill:#000000" />
      <path
         d="m 377.57262,-224.2241 q -3.76954,0 -6.40625,-0.39062 -2.63672,-0.3711 -4.25782,-1.54297 -1.62109,-1.19141 -2.36328,-3.55469 -0.74219,-2.36328 -0.74219,-6.30859 0,-3.82813 0.74219,-6.13282 0.74219,-2.30468 2.36328,-3.47656 1.6211,-1.17187 4.25782,-1.5625 2.63671,-0.39062 6.40625,-0.39062 4.51171,0 7.42187,0.52734 2.92969,0.50781 4.33594,2.10938 1.40625,1.60156 1.40625,4.88281 h -3.59375 q 0,-1.89453 -0.78125,-2.83203 -0.78125,-0.9375 -2.85156,-1.25 -2.07032,-0.3125 -5.9375,-0.3125 -3.47657,0 -5.50782,0.29297 -2.03125,0.29296 -2.98828,1.15234 -0.95703,0.83984 -1.25,2.51953 -0.27344,1.67969 -0.27344,4.47266 0,2.89062 0.27344,4.6289 0.29297,1.73828 1.25,2.61719 0.95703,0.85938 2.98828,1.15234 2.03125,0.27344 5.50782,0.27344 2.94921,0 4.82421,-0.15625 1.875,-0.17578 2.91016,-0.66406 1.03516,-0.50781 1.42578,-1.44531 0.41016,-0.95703 0.41016,-2.53907 h 3.59375 q 0,2.61719 -0.78125,4.19922 -0.78125,1.58203 -2.38281,2.38282 -1.60157,0.80078 -4.10157,1.07421 -2.48047,0.27344 -5.89843,0.27344 z"
         id="path38165"
         style="fill:#000000" />
      <path
         d="m 420.8734,-231.33347 q 0,2.51953 -0.76172,3.96484 -0.74219,1.44531 -2.28516,2.10938 -1.54297,0.66406 -3.94531,0.83984 -2.38281,0.19531 -5.68359,0.19531 -3.76954,0 -6.40625,-0.39062 -2.61719,-0.3711 -4.23829,-1.54297 -1.60156,-1.19141 -2.34375,-3.55469 -0.72265,-2.36328 -0.72265,-6.30859 0,-3.82813 0.70312,-6.13282 0.72266,-2.30468 2.32422,-3.47656 1.60156,-1.17187 4.19922,-1.5625 2.61719,-0.39062 6.38672,-0.39062 4.31641,0 7.14844,0.60547 2.83203,0.60546 4.21875,2.30468 1.40625,1.69922 1.40625,4.98047 v 4.82422 h -22.61719 q 0.0195,2.5 0.35156,4.00391 0.33203,1.5039 1.32813,2.26562 0.99609,0.76172 2.96875,1.01563 1.99218,0.23437 5.29297,0.23437 2.96875,0 4.78515,-0.11719 1.83594,-0.11718 2.77344,-0.50781 0.95703,-0.41015 1.28906,-1.21094 0.33203,-0.80078 0.33203,-2.14843 z m -12.77344,-13.125 q -3.18359,0 -5.13672,0.23437 -1.93359,0.23438 -2.94922,0.91797 -1.01562,0.66406 -1.38672,1.99219 -0.35156,1.32812 -0.37109,3.49609 h 19.02344 v -1.875 q 0,-1.40625 -0.33203,-2.32422 -0.3125,-0.9375 -1.25,-1.46484 -0.9375,-0.54688 -2.77344,-0.76172 -1.81641,-0.21484 -4.82422,-0.21484 z"
         id="path38167"
         style="fill:#000000" />
      <path
         d="m 425.79527,-224.65379 v -22.5 h 3.75 v 2.98829 q 0.83985,-1.13282 2.07031,-1.89454 1.25,-0.76171 3.32032,-1.13281 2.08984,-0.39062 5.46875,-0.39062 4.41406,0 6.95312,0.85937 2.5586,0.85938 3.63281,3.06641 1.07422,2.20703 1.07422,6.25 v 12.7539 h -3.76953 v -12.7539 q 0,-2.30469 -0.39062,-3.71094 -0.39063,-1.40625 -1.34766,-2.12891 -0.9375,-0.72265 -2.59766,-0.95703 -1.66015,-0.2539 -4.21875,-0.2539 -3.90625,0 -6.13281,0.64453 -2.22656,0.64453 -3.14453,2.03125 -0.91797,1.36719 -0.91797,3.57422 v 13.55468 z"
         id="path38169"
         style="fill:#000000" />
      <path
         d="m 467.39683,-224.65379 q -3.4375,0 -5.50781,-0.68359 -2.07031,-0.70312 -3.00781,-2.46094 -0.91797,-1.77734 -0.91797,-4.98047 v -20.52734 h 3.75 v 6.15234 h 13.84766 v 3.08594 h -13.84766 v 11.28906 q 0,2.1875 0.39063,3.26172 0.41015,1.07422 1.62109,1.40625 1.23047,0.33203 3.67187,0.33203 2.16797,0 3.39844,-0.13671 1.25,-0.13672 1.83594,-0.72266 0.58594,-0.60547 0.74219,-1.97266 0.15625,-1.36718 0.15625,-3.84765 h 3.32031 q 0,3.24218 -0.41016,5.19531 -0.39062,1.95312 -1.42578,2.94922 -1.01562,0.99609 -2.87109,1.32812 -1.83594,0.33203 -4.7461,0.33203 z"
         id="path38171"
         style="fill:#000000" />
      <path
         d="m 482.70933,-224.65379 v -22.5 h 3.75 v 3.10547 q 0.625,-0.99609 1.25,-1.66015 0.64454,-0.66407 1.66016,-1.05469 1.03516,-0.39063 2.79297,-0.54688 1.75781,-0.17578 4.62891,-0.17578 v 3.14453 q -3.86719,0 -5.9961,0.27344 -2.10937,0.27344 -3.02734,0.9375 -0.91797,0.64453 -1.11328,1.79688 -0.19532,1.15234 -0.19532,2.92968 v 13.75 z"
         id="path38173"
         style="fill:#000000" />
      <path
         d="m 502.82652,-224.65379 v -30 h 3.75 v 30 z"
         id="path38175"
         style="fill:#000000" />
      <path
         d="m 512.82652,-224.65379 v -21.25 h 3.75 v 21.25 z m 0,-26.25 v -3.75 h 3.75 v 3.75 z"
         id="path38177"
         style="fill:#000000" />
      <path
         d="m 534.29137,-224.2241 q -4.10157,0 -6.60157,-0.27344 -2.48047,-0.27343 -3.76953,-1.01562 -1.26953,-0.74219 -1.71875,-2.10938 -0.42969,-1.36718 -0.42969,-3.55468 h 3.59375 q 0,1.23047 0.17579,1.99218 0.17578,0.74219 0.99609,1.15235 0.82031,0.39062 2.65625,0.54687 1.85547,0.13672 5.19531,0.13672 3.53516,0 5.48828,-0.13672 1.97266,-0.15625 2.83203,-0.54687 0.85938,-0.41016 1.03516,-1.17188 0.19531,-0.76172 0.19531,-2.01172 0,-1.52343 -0.27343,-2.28515 -0.27344,-0.76172 -1.28907,-1.01563 -1.01562,-0.27343 -3.24218,-0.29297 l -8.94532,-0.0976 q -3.45703,-0.0391 -5.27343,-0.58594 -1.81641,-0.54687 -2.48047,-1.91406 -0.66407,-1.38672 -0.66407,-3.92578 0,-2.36328 0.72266,-3.65235 0.74219,-1.28906 2.30469,-1.83593 1.5625,-0.54688 4.0625,-0.64454 2.5,-0.11718 6.03515,-0.11718 4.16016,0 6.60157,0.2539 2.46093,0.25391 3.67187,0.95703 1.23047,0.70313 1.60156,2.05079 0.39063,1.32812 0.39063,3.47656 h -3.59375 q 0,-1.26953 -0.17578,-1.99219 -0.17578,-0.74219 -0.95703,-1.07422 -0.76172,-0.35156 -2.5,-0.44922 -1.71875,-0.0976 -4.84375,-0.0976 -3.55469,0 -5.52735,0.0781 -1.97265,0.0781 -2.85156,0.3711 -0.87891,0.29296 -1.07422,0.9375 -0.19531,0.625 -0.19531,1.73828 0,1.13281 0.11719,1.79687 0.13672,0.64453 0.68359,0.97656 0.54688,0.33204 1.77734,0.44922 1.25,0.0977 3.47657,0.11719 l 7.71484,0.0781 q 3.47656,0.0391 5.27344,0.58593 1.8164,0.52735 2.46094,1.97266 0.66406,1.42578 0.66406,4.14062 0,2.44141 -0.72266,3.84766 -0.70312,1.40625 -2.26562,2.08984 -1.5625,0.66407 -4.1211,0.85938 -2.53906,0.19531 -6.21093,0.19531 z"
         id="path38179"
         style="fill:#000000" />
      <path
         d="m 578.3734,-231.33347 q 0,2.51953 -0.76172,3.96484 -0.74219,1.44531 -2.28516,2.10938 -1.54297,0.66406 -3.94531,0.83984 -2.38281,0.19531 -5.68359,0.19531 -3.76954,0 -6.40625,-0.39062 -2.61719,-0.3711 -4.23829,-1.54297 -1.60156,-1.19141 -2.34375,-3.55469 -0.72265,-2.36328 -0.72265,-6.30859 0,-3.82813 0.70312,-6.13282 0.72266,-2.30468 2.32422,-3.47656 1.60156,-1.17187 4.19922,-1.5625 2.61719,-0.39062 6.38672,-0.39062 4.31641,0 7.14844,0.60547 2.83203,0.60546 4.21875,2.30468 1.40625,1.69922 1.40625,4.98047 v 4.82422 h -22.61719 q 0.0195,2.5 0.35156,4.00391 0.33203,1.5039 1.32813,2.26562 0.99609,0.76172 2.96875,1.01563 1.99218,0.23437 5.29297,0.23437 2.96875,0 4.78515,-0.11719 1.83594,-0.11718 2.77344,-0.50781 0.95703,-0.41015 1.28906,-1.21094 0.33203,-0.80078 0.33203,-2.14843 z m -12.77344,-13.125 q -3.18359,0 -5.13672,0.23437 -1.93359,0.23438 -2.94922,0.91797 -1.01562,0.66406 -1.38672,1.99219 -0.35156,1.32812 -0.37109,3.49609 h 19.02344 v -1.875 q 0,-1.40625 -0.33203,-2.32422 -0.3125,-0.9375 -1.25,-1.46484 -0.9375,-0.54688 -2.77344,-0.76172 -1.81641,-0.21484 -4.82422,-0.21484 z"
         id="path38181"
         style="fill:#000000" />
      <path
         d="m 596.36168,-224.2241 q -3.76953,0 -6.40625,-0.39062 -2.63672,-0.3711 -4.25781,-1.54297 -1.6211,-1.19141 -2.36329,-3.55469 -0.74218,-2.36328 -0.74218,-6.30859 0,-3.82813 0.74218,-6.13282 0.74219,-2.30468 2.36329,-3.47656 1.62109,-1.17187 4.25781,-1.5625 2.63672,-0.39062 6.40625,-0.39062 3.61328,0 6.09375,0.54687 2.5,0.54688 3.92578,2.44141 v -10.0586 h 3.75 v 30 h -3.75 v -2.57812 q -1.42578,1.91406 -3.92578,2.46094 -2.48047,0.54687 -6.09375,0.54687 z m 10.01953,-11.79687 q 0,-2.79297 -0.39063,-4.47266 -0.39062,-1.67969 -1.44531,-2.51953 -1.05469,-0.85938 -3.02734,-1.15234 -1.97266,-0.29297 -5.15625,-0.29297 -3.47656,0 -5.50781,0.29297 -2.03125,0.29296 -2.98829,1.15234 -0.95703,0.83984 -1.25,2.51953 -0.27343,1.67969 -0.27343,4.47266 0,2.89062 0.27343,4.6289 0.29297,1.73828 1.25,2.61719 0.95704,0.85938 2.98829,1.15234 2.03125,0.27344 5.50781,0.27344 3.18359,0 5.15625,-0.27344 1.97265,-0.29296 3.02734,-1.15234 1.05469,-0.87891 1.44531,-2.61719 0.39063,-1.73828 0.39063,-4.6289 z"
         id="path38183"
         style="fill:#000000" />
      <path
         d="m 640.32652,-224.65379 -14.74609,-30 h 4.3164 l 12.92969,26.81641 12.1875,-26.81641 h 4.375 l 12.1875,26.81641 11.67969,-26.81641 h 4.31641 l -13.4961,30 h -5 l -11.875,-26.23046 -11.875,26.23046 z"
         id="path38185"
         style="fill:#000000" />
      <path
         d="m 715.22887,-231.33347 q 0,2.51953 -0.76172,3.96484 -0.74219,1.44531 -2.28516,2.10938 -1.54297,0.66406 -3.94531,0.83984 -2.38281,0.19531 -5.6836,0.19531 -3.76953,0 -6.40625,-0.39062 -2.61718,-0.3711 -4.23828,-1.54297 -1.60156,-1.19141 -2.34375,-3.55469 -0.72265,-2.36328 -0.72265,-6.30859 0,-3.82813 0.70312,-6.13282 0.72266,-2.30468 2.32422,-3.47656 1.60156,-1.17187 4.19922,-1.5625 2.61719,-0.39062 6.38672,-0.39062 4.3164,0 7.14844,0.60547 2.83203,0.60546 4.21875,2.30468 1.40625,1.69922 1.40625,4.98047 v 4.82422 h -22.61719 q 0.0195,2.5 0.35156,4.00391 0.33203,1.5039 1.32813,2.26562 0.99609,0.76172 2.96875,1.01563 1.99218,0.23437 5.29296,0.23437 2.96875,0 4.78516,-0.11719 1.83594,-0.11718 2.77344,-0.50781 0.95703,-0.41015 1.28906,-1.21094 0.33203,-0.80078 0.33203,-2.14843 z m -12.77344,-13.125 q -3.1836,0 -5.13672,0.23437 -1.93359,0.23438 -2.94922,0.91797 -1.01562,0.66406 -1.38672,1.99219 -0.35156,1.32812 -0.37109,3.49609 h 19.02344 v -1.875 q 0,-1.40625 -0.33204,-2.32422 -0.3125,-0.9375 -1.25,-1.46484 -0.9375,-0.54688 -2.77343,-0.76172 -1.81641,-0.21484 -4.82422,-0.21484 z"
         id="path38187"
         style="fill:#000000" />
      <path
         d="m 733.92027,-224.2241 q -3.61328,0 -6.11328,-0.54687 -2.48047,-0.54688 -3.90625,-2.46094 v 2.57812 h -3.75 v -30 h 3.75 v 10.0586 q 1.42578,-1.89453 3.90625,-2.44141 2.5,-0.54687 6.11328,-0.54687 3.78906,0 6.40625,0.39062 2.63672,0.39063 4.25781,1.5625 1.6211,1.17188 2.36329,3.47656 0.74218,2.30469 0.74218,6.13282 0,3.94531 -0.74218,6.30859 -0.74219,2.36328 -2.36329,3.55469 -1.62109,1.17187 -4.25781,1.54297 -2.61719,0.39062 -6.40625,0.39062 z m 10.01953,-11.79687 q 0,-2.79297 -0.29297,-4.47266 -0.27343,-1.67969 -1.23046,-2.51953 -0.95704,-0.85938 -2.98829,-1.15234 -2.01171,-0.29297 -5.50781,-0.29297 -3.18359,0 -5.15625,0.29297 -1.97265,0.29296 -3.02734,1.15234 -1.05469,0.83984 -1.44531,2.51953 -0.39063,1.67969 -0.39063,4.47266 0,2.89062 0.39063,4.6289 0.39062,1.73828 1.44531,2.61719 1.05469,0.85938 3.02734,1.15234 1.97266,0.27344 5.15625,0.27344 3.4961,0 5.50781,-0.27344 2.03125,-0.29296 2.98829,-1.15234 0.95703,-0.87891 1.23046,-2.61719 0.29297,-1.73828 0.29297,-4.6289 z"
         id="path38189"
         style="fill:#000000" />
      <path
         d="m 752.0648,-234.65379 v -3.125 h 15 v 3.125 z"
         id="path38191"
         style="fill:#000000" />
      <path
         d="m 785.91246,-224.2241 q -3.61328,0 -6.11328,-0.54687 -2.48047,-0.54688 -3.90625,-2.46094 v 2.57812 h -3.75 v -30 h 3.75 v 10.0586 q 1.42578,-1.89453 3.90625,-2.44141 2.5,-0.54687 6.11328,-0.54687 3.78906,0 6.40625,0.39062 2.63672,0.39063 4.25781,1.5625 1.6211,1.17188 2.36328,3.47656 0.74219,2.30469 0.74219,6.13282 0,3.94531 -0.74219,6.30859 -0.74218,2.36328 -2.36328,3.55469 -1.62109,1.17187 -4.25781,1.54297 -2.61719,0.39062 -6.40625,0.39062 z m 10.01953,-11.79687 q 0,-2.79297 -0.29297,-4.47266 -0.27344,-1.67969 -1.23047,-2.51953 -0.95703,-0.85938 -2.98828,-1.15234 -2.01172,-0.29297 -5.50781,-0.29297 -3.18359,0 -5.15625,0.29297 -1.97266,0.29296 -3.02734,1.15234 -1.05469,0.83984 -1.44532,2.51953 -0.39062,1.67969 -0.39062,4.47266 0,2.89062 0.39062,4.6289 0.39063,1.73828 1.44532,2.61719 1.05468,0.85938 3.02734,1.15234 1.97266,0.27344 5.15625,0.27344 3.49609,0 5.50781,-0.27344 2.03125,-0.29296 2.98828,-1.15234 0.95703,-0.87891 1.23047,-2.61719 0.29297,-1.73828 0.29297,-4.6289 z"
         id="path38193"
         style="fill:#000000" />
      <path
         d="m 815.93199,-224.2241 q -4.04297,0 -6.67969,-0.42969 -2.61718,-0.41015 -3.90625,-1.83593 -1.26953,-1.42578 -1.26953,-4.4336 0,-3.0664 1.19141,-4.49218 1.21094,-1.44532 3.80859,-1.875 2.61719,-0.42969 6.85547,-0.42969 3.4375,0 5.76172,0.15625 2.32422,0.15625 4.16016,0.54687 -0.0391,-2.59765 -0.35157,-4.08203 -0.3125,-1.5039 -1.17187,-2.22656 -0.85938,-0.72266 -2.51953,-0.91797 -1.64063,-0.21484 -4.375,-0.21484 -3.125,0 -4.90235,0.13672 -1.75781,0.13671 -2.55859,0.48828 -0.80078,0.35156 -1.01563,1.01562 -0.19531,0.66406 -0.19531,1.71875 h -3.75 q 0,-2.10937 0.56641,-3.39844 0.58594,-1.28906 1.97265,-1.95312 1.38672,-0.66406 3.78907,-0.89844 2.42187,-0.23437 6.09375,-0.23437 3.94531,0 6.34765,0.50781 2.42188,0.50781 3.67188,1.83594 1.26953,1.30859 1.69922,3.67187 0.44922,2.36328 0.44922,6.09375 v 10.82031 h -3.75 v -1.54296 q -0.66407,0.70312 -1.83594,1.13281 -1.17188,0.42969 -3.125,0.625 -1.9336,0.21484 -4.96094,0.21484 z m 0,-3.04687 q 3.33984,0 5.33203,-0.0781 1.99219,-0.0781 2.96875,-0.42969 0.9961,-0.35156 1.3086,-1.13281 0.3125,-0.78125 0.3125,-2.1875 v -3.45703 l -9.92188,-0.11719 q -2.63672,-0.0391 -4.25781,0.0781 -1.60156,0.0976 -2.44141,0.46875 -0.83984,0.35156 -1.13281,1.13281 -0.27344,0.76172 -0.27344,2.07031 0,1.26953 0.27344,2.01172 0.29297,0.74219 1.13281,1.09375 0.83985,0.35156 2.44141,0.44922 1.62109,0.0977 4.25781,0.0977 z"
         id="path38195"
         style="fill:#000000" />
      <path
         d="m 847.24058,-224.2241 q -4.10156,0 -6.60156,-0.27344 -2.48047,-0.27343 -3.76953,-1.01562 -1.26953,-0.74219 -1.71875,-2.10938 -0.42969,-1.36718 -0.42969,-3.55468 h 3.59375 q 0,1.23047 0.17578,1.99218 0.17579,0.74219 0.9961,1.15235 0.82031,0.39062 2.65625,0.54687 1.85547,0.13672 5.19531,0.13672 3.53516,0 5.48828,-0.13672 1.97266,-0.15625 2.83203,-0.54687 0.85938,-0.41016 1.03516,-1.17188 0.19531,-0.76172 0.19531,-2.01172 0,-1.52343 -0.27344,-2.28515 -0.27343,-0.76172 -1.28906,-1.01563 -1.01562,-0.27343 -3.24219,-0.29297 l -8.94531,-0.0976 q -3.45703,-0.0391 -5.27344,-0.58594 -1.8164,-0.54687 -2.48046,-1.91406 -0.66407,-1.38672 -0.66407,-3.92578 0,-2.36328 0.72266,-3.65235 0.74219,-1.28906 2.30469,-1.83593 1.5625,-0.54688 4.0625,-0.64454 2.5,-0.11718 6.03515,-0.11718 4.16016,0 6.60157,0.2539 2.46093,0.25391 3.67187,0.95703 1.23047,0.70313 1.60156,2.05079 0.39063,1.32812 0.39063,3.47656 h -3.59375 q 0,-1.26953 -0.17578,-1.99219 -0.17578,-0.74219 -0.95703,-1.07422 -0.76172,-0.35156 -2.5,-0.44922 -1.71875,-0.0976 -4.84375,-0.0976 -3.55469,0 -5.52735,0.0781 -1.97265,0.0781 -2.85156,0.3711 -0.87891,0.29296 -1.07422,0.9375 -0.19531,0.625 -0.19531,1.73828 0,1.13281 0.11719,1.79687 0.13671,0.64453 0.68359,0.97656 0.54687,0.33204 1.77734,0.44922 1.25,0.0977 3.47657,0.11719 l 7.71484,0.0781 q 3.47656,0.0391 5.27344,0.58593 1.8164,0.52735 2.46093,1.97266 0.66407,1.42578 0.66407,4.14062 0,2.44141 -0.72266,3.84766 -0.70312,1.40625 -2.26562,2.08984 -1.5625,0.66407 -4.1211,0.85938 -2.53906,0.19531 -6.21094,0.19531 z"
         id="path38197"
         style="fill:#000000" />
      <path
         d="m 891.32262,-231.33347 q 0,2.51953 -0.76172,3.96484 -0.74219,1.44531 -2.28516,2.10938 -1.54297,0.66406 -3.94531,0.83984 -2.38281,0.19531 -5.6836,0.19531 -3.76953,0 -6.40625,-0.39062 -2.61718,-0.3711 -4.23828,-1.54297 -1.60156,-1.19141 -2.34375,-3.55469 -0.72265,-2.36328 -0.72265,-6.30859 0,-3.82813 0.70312,-6.13282 0.72266,-2.30468 2.32422,-3.47656 1.60156,-1.17187 4.19922,-1.5625 2.61719,-0.39062 6.38672,-0.39062 4.3164,0 7.14844,0.60547 2.83203,0.60546 4.21875,2.30468 1.40625,1.69922 1.40625,4.98047 v 4.82422 h -22.61719 q 0.0195,2.5 0.35156,4.00391 0.33203,1.5039 1.32813,2.26562 0.99609,0.76172 2.96875,1.01563 1.99218,0.23437 5.29296,0.23437 2.96875,0 4.78516,-0.11719 1.83594,-0.11718 2.77344,-0.50781 0.95703,-0.41015 1.28906,-1.21094 0.33203,-0.80078 0.33203,-2.14843 z m -12.77344,-13.125 q -3.1836,0 -5.13672,0.23437 -1.93359,0.23438 -2.94922,0.91797 -1.01562,0.66406 -1.38672,1.99219 -0.35156,1.32812 -0.37109,3.49609 h 19.02344 v -1.875 q 0,-1.40625 -0.33204,-2.32422 -0.3125,-0.9375 -1.25,-1.46484 -0.9375,-0.54688 -2.77343,-0.76172 -1.81641,-0.21484 -4.82422,-0.21484 z"
         id="path38199"
         style="fill:#000000" />
      <path
         d="m 909.3109,-224.2241 q -3.76953,0 -6.40625,-0.39062 -2.63672,-0.3711 -4.25782,-1.54297 -1.62109,-1.19141 -2.36328,-3.55469 -0.74218,-2.36328 -0.74218,-6.30859 0,-3.82813 0.74218,-6.13282 0.74219,-2.30468 2.36328,-3.47656 1.6211,-1.17187 4.25782,-1.5625 2.63672,-0.39062 6.40625,-0.39062 3.61328,0 6.09375,0.54687 2.5,0.54688 3.92578,2.44141 v -10.0586 h 3.75 v 30 h -3.75 v -2.57812 q -1.42578,1.91406 -3.92578,2.46094 -2.48047,0.54687 -6.09375,0.54687 z m 10.01953,-11.79687 q 0,-2.79297 -0.39063,-4.47266 -0.39062,-1.67969 -1.44531,-2.51953 -1.05469,-0.85938 -3.02734,-1.15234 -1.97266,-0.29297 -5.15625,-0.29297 -3.47657,0 -5.50782,0.29297 -2.03125,0.29296 -2.98828,1.15234 -0.95703,0.83984 -1.25,2.51953 -0.27343,1.67969 -0.27343,4.47266 0,2.89062 0.27343,4.6289 0.29297,1.73828 1.25,2.61719 0.95703,0.85938 2.98828,1.15234 2.03125,0.27344 5.50782,0.27344 3.18359,0 5.15625,-0.27344 1.97265,-0.29296 3.02734,-1.15234 1.05469,-0.87891 1.44531,-2.61719 0.39063,-1.73828 0.39063,-4.6289 z"
         id="path38201"
         style="fill:#000000" />
      <path
         d="m 940.8539,-224.65379 v -30 h 20.0781 q 4.3945,0 7.0703,0.42969 2.6953,0.42969 4.082,1.44531 1.3867,0.9961 1.875,2.71485 0.4883,1.69922 0.4883,4.23828 v 0.78125 q 0,2.42187 -0.5078,4.12109 -0.4883,1.67969 -1.9141,2.71485 -1.4257,1.03515 -4.1211,1.52343 -2.6953,0.46875 -7.0898,0.46875 h -16.2109 v 11.5625 z m 29.8437,-21.17187 q 0,-1.85547 -0.3516,-2.96875 -0.3515,-1.11328 -1.4062,-1.67969 -1.0547,-0.5664 -3.1445,-0.74219 -2.0899,-0.19531 -5.586,-0.19531 h -15.6054 v 11.95313 h 15.6054 q 3.4961,0 5.586,-0.21485 2.0898,-0.23437 3.1445,-0.82031 1.0547,-0.60547 1.4062,-1.69922 0.3516,-1.11328 0.3516,-2.85156 z"
         id="path38203"
         style="fill:#000000" />
      <path
         d="m 989.97505,-224.2241 q -4.41415,0 -6.95325,-0.95703 -2.539,-0.97656 -3.6133,-3.24219 -1.0742,-2.28515 -1.0742,-6.23047 v -12.5 h 3.7696 v 12.5 q 0,2.22657 0.3515,3.67188 0.3711,1.42578 1.2891,2.22656 0.918,0.78125 2.5781,1.09375 1.67975,0.3125 4.31645,0.3125 3.9063,0 6.1328,-0.64453 2.2266,-0.64453 3.1446,-2.01172 0.93745,-1.38672 0.93745,-3.59375 v -13.55469 h 3.75 v 22.5 h -3.75 v -2.98828 q -0.8204,1.13282 -2.07035,1.89453 -1.25,0.76172 -3.3398,1.13282 -2.0898,0.39062 -5.4687,0.39062 z"
         id="path38205"
         style="fill:#000000" />
      <path
         d="m 1023.5296,-224.2241 q -3.6132,0 -6.1132,-0.54687 -2.4805,-0.54688 -3.9063,-2.46094 v 2.57812 h -3.75 v -30 h 3.75 v 10.0586 q 1.4258,-1.89453 3.9063,-2.44141 2.5,-0.54687 6.1132,-0.54687 3.7891,0 6.4063,0.39062 2.6367,0.39063 4.2578,1.5625 1.6211,1.17188 2.3633,3.47656 0.7422,2.30469 0.7422,6.13282 0,3.94531 -0.7422,6.30859 -0.7422,2.36328 -2.3633,3.55469 -1.6211,1.17187 -4.2578,1.54297 -2.6172,0.39062 -6.4063,0.39062 z m 10.0196,-11.79687 q 0,-2.79297 -0.293,-4.47266 -0.2734,-1.67969 -1.2305,-2.51953 -0.957,-0.85938 -2.9882,-1.15234 -2.0118,-0.29297 -5.5079,-0.29297 -3.1836,0 -5.1562,0.29297 -1.9727,0.29296 -3.0274,1.15234 -1.0546,0.83984 -1.4453,2.51953 -0.3906,1.67969 -0.3906,4.47266 0,2.89062 0.3906,4.6289 0.3907,1.73828 1.4453,2.61719 1.0547,0.85938 3.0274,1.15234 1.9726,0.27344 5.1562,0.27344 3.4961,0 5.5079,-0.27344 2.0312,-0.29296 2.9882,-1.15234 0.9571,-0.87891 1.2305,-2.61719 0.293,-1.73828 0.293,-4.6289 z"
         id="path38207"
         style="fill:#000000" />
      <path
         d="m 1042.9242,-224.65379 v -30 h 3.75 v 30 z"
         id="path38209"
         style="fill:#000000" />
      <path
         d="m 1052.9242,-224.65379 v -21.25 h 3.75 v 21.25 z m 0,-26.25 v -3.75 h 3.75 v 3.75 z"
         id="path38211"
         style="fill:#000000" />
      <path
         d="m 1074.389,-224.2241 q -4.1015,0 -6.6015,-0.27344 -2.4805,-0.27343 -3.7696,-1.01562 -1.2695,-0.74219 -1.7187,-2.10938 -0.4297,-1.36718 -0.4297,-3.55468 h 3.5937 q 0,1.23047 0.1758,1.99218 0.1758,0.74219 0.9961,1.15235 0.8203,0.39062 2.6563,0.54687 1.8554,0.13672 5.1953,0.13672 3.5351,0 5.4883,-0.13672 1.9726,-0.15625 2.832,-0.54687 0.8594,-0.41016 1.0351,-1.17188 0.1954,-0.76172 0.1954,-2.01172 0,-1.52343 -0.2735,-2.28515 -0.2734,-0.76172 -1.289,-1.01563 -1.0157,-0.27343 -3.2422,-0.29297 l -8.9453,-0.0976 q -3.4571,-0.0391 -5.2735,-0.58594 -1.8164,-0.54687 -2.4805,-1.91406 -0.664,-1.38672 -0.664,-3.92578 0,-2.36328 0.7226,-3.65235 0.7422,-1.28906 2.3047,-1.83593 1.5625,-0.54688 4.0625,-0.64454 2.5,-0.11718 6.0352,-0.11718 4.1601,0 6.6015,0.2539 2.461,0.25391 3.6719,0.95703 1.2305,0.70313 1.6016,2.05079 0.3906,1.32812 0.3906,3.47656 h -3.5937 q 0,-1.26953 -0.1758,-1.99219 -0.1758,-0.74219 -0.9571,-1.07422 -0.7617,-0.35156 -2.5,-0.44922 -1.7187,-0.0976 -4.8437,-0.0976 -3.5547,0 -5.5273,0.0781 -1.9727,0.0781 -2.8516,0.3711 -0.8789,0.29296 -1.0742,0.9375 -0.1953,0.625 -0.1953,1.73828 0,1.13281 0.1171,1.79687 0.1368,0.64453 0.6836,0.97656 0.5469,0.33204 1.7774,0.44922 1.25,0.0977 3.4765,0.11719 l 7.7149,0.0781 q 3.4766,0.0391 5.2734,0.58593 1.8164,0.52735 2.461,1.97266 0.664,1.42578 0.664,4.14062 0,2.44141 -0.7226,3.84766 -0.7032,1.40625 -2.2657,2.08984 -1.5625,0.66407 -4.121,0.85938 -2.5391,0.19531 -6.211,0.19531 z"
         id="path38213"
         style="fill:#000000" />
      <path
         d="m 1092.7875,-224.65379 v -30 h 3.75 v 10.48829 q 0.8398,-1.13282 2.0703,-1.89454 1.25,-0.76171 3.3203,-1.13281 2.0898,-0.39062 5.4687,-0.39062 4.4141,0 6.9532,0.85937 2.5585,0.85938 3.6328,3.06641 1.0742,2.20703 1.0742,6.25 v 12.7539 h -3.7695 v -12.7539 q 0,-2.30469 -0.3907,-3.71094 -0.3906,-1.40625 -1.3476,-2.12891 -0.9375,-0.72265 -2.5977,-0.95703 -1.6601,-0.2539 -4.2187,-0.2539 -3.9063,0 -6.1328,0.64453 -2.2266,0.64453 -3.1446,2.03125 -0.9179,1.36719 -0.9179,3.57422 v 13.55468 z"
         id="path38215"
         style="fill:#000000" />
      <path
         d="m 1124.0179,-224.65379 v -21.25 h 3.75 v 21.25 z m 0,-26.25 v -3.75 h 3.75 v 3.75 z"
         id="path38217"
         style="fill:#000000" />
      <path
         d="m 1132.846,-224.65379 v -22.5 h 3.75 v 2.98829 q 0.8399,-1.13282 2.0704,-1.89454 1.25,-0.76171 3.3203,-1.13281 2.0898,-0.39062 5.4687,-0.39062 4.4141,0 6.9531,0.85937 2.5586,0.85938 3.6329,3.06641 1.0742,2.20703 1.0742,6.25 v 12.7539 h -3.7696 v -12.7539 q 0,-2.30469 -0.3906,-3.71094 -0.3906,-1.40625 -1.3476,-2.12891 -0.9375,-0.72265 -2.5977,-0.95703 -1.6601,-0.2539 -4.2187,-0.2539 -3.9063,0 -6.1329,0.64453 -2.2265,0.64453 -3.1445,2.03125 -0.918,1.36719 -0.918,3.57422 v 13.55468 z"
         id="path38219"
         style="fill:#000000" />
      <path
         d="m 1177.8461,-216.07957 q -2.9883,0 -5.4492,-0.15625 -2.4414,-0.13672 -4.1992,-0.70312 -1.7579,-0.54688 -2.7149,-1.75781 -0.957,-1.19141 -0.957,-3.28125 h 3.75 q 0,1.36718 1.0547,1.95312 1.0742,0.58594 3.2031,0.70313 2.1289,0.11718 5.3125,0.11718 2.3633,0 4.043,-0.15625 1.6797,-0.13672 2.7343,-0.83984 1.0743,-0.70313 1.5625,-2.36328 0.5079,-1.64063 0.5079,-4.62891 v -0.52734 q -1.3672,1.75781 -3.7696,2.32422 -2.3828,0.5664 -5.918,0.5664 -3.6523,0 -6.2304,-0.41015 -2.5781,-0.42969 -4.1992,-1.60157 -1.6016,-1.17187 -2.3438,-3.39843 -0.7422,-2.22657 -0.7422,-5.82032 0,-3.82812 0.7422,-6.13281 0.7422,-2.30469 2.3438,-3.45703 1.6211,-1.17187 4.1992,-1.54297 2.5781,-0.39062 6.2304,-0.39062 3.5352,0 5.918,0.52734 2.4024,0.50781 3.7696,2.28516 v -2.38282 h 3.75 v 20.11719 q -0.078,3.71094 -0.9375,5.89844 -0.8594,2.20703 -2.461,3.28125 -1.582,1.09375 -3.9062,1.42578 -2.3047,0.35156 -5.293,0.35156 z m 8.8477,-19.98047 q 0,-2.79296 -0.3516,-4.45312 -0.332,-1.67969 -1.3281,-2.51953 -0.9766,-0.85938 -2.9102,-1.13281 -1.9141,-0.29297 -5.0977,-0.29297 -3.3593,0 -5.332,0.29297 -1.9531,0.27343 -2.9101,1.13281 -0.9571,0.83984 -1.25,2.51953 -0.2735,1.66016 -0.2735,4.45312 0,2.53907 0.2735,4.14063 0.2929,1.60156 1.2304,2.46094 0.9571,0.85937 2.9297,1.1914 1.9727,0.3125 5.332,0.3125 3.1836,0 5.0977,-0.3125 1.9336,-0.33203 2.9102,-1.1914 0.9961,-0.85938 1.3281,-2.46094 0.3516,-1.60156 0.3516,-4.14063 z"
         id="path38221"
         style="fill:#000000" />
      <path
         d="m 1208.2172,-254.65379 h 20.0781 q 4.3945,0 7.0703,0.39063 2.6953,0.39062 4.0821,1.34766 1.3867,0.95703 1.875,2.61718 0.4882,1.66016 0.4882,4.19922 v 0.78125 q 0,2.34375 -0.5664,4.04297 -0.5468,1.67969 -2.1289,2.73438 -1.582,1.03515 -4.6875,1.46484 l 6.5235,12.42187 h -3.75 l -6.3868,-12.14843 q -0.3906,0.0195 -0.8203,0.0195 -0.4101,0 -0.8593,0 h -17.168 v 12.1289 h -3.75 z m 3.75,14.62891 h 16.582 q 3.3399,0 5.2539,-0.21484 1.9336,-0.23438 2.8321,-0.80078 0.9179,-0.56641 1.1718,-1.60157 0.2539,-1.03515 0.2539,-2.67578 v -0.78125 q 0,-1.85547 -0.3515,-2.92969 -0.3516,-1.07421 -1.4063,-1.58203 -1.0547,-0.50781 -3.1445,-0.64453 -2.0898,-0.15625 -5.5859,-0.15625 h -15.6055 z"
         id="path38223"
         style="fill:#000000" />
      <path
         d="m 1273.4125,-231.33347 q 0,2.51953 -0.7617,3.96484 -0.7422,1.44531 -2.2852,2.10938 -1.5429,0.66406 -3.9453,0.83984 -2.3828,0.19531 -5.6836,0.19531 -3.7695,0 -6.4062,-0.39062 -2.6172,-0.3711 -4.2383,-1.54297 -1.6016,-1.19141 -2.3438,-3.55469 -0.7226,-2.36328 -0.7226,-6.30859 0,-3.82813 0.7031,-6.13282 0.7227,-2.30468 2.3242,-3.47656 1.6016,-1.17187 4.1992,-1.5625 2.6172,-0.39062 6.3868,-0.39062 4.3164,0 7.1484,0.60547 2.832,0.60546 4.2188,2.30468 1.4062,1.69922 1.4062,4.98047 v 4.82422 h -22.6172 q 0.019,2.5 0.3516,4.00391 0.332,1.5039 1.3281,2.26562 0.9961,0.76172 2.9688,1.01563 1.9921,0.23437 5.2929,0.23437 2.9688,0 4.7852,-0.11719 1.8359,-0.11718 2.7734,-0.50781 0.957,-0.41015 1.2891,-1.21094 0.332,-0.80078 0.332,-2.14843 z m -12.7734,-13.125 q -3.1836,0 -5.1368,0.23437 -1.9335,0.23438 -2.9492,0.91797 -1.0156,0.66406 -1.3867,1.99219 -0.3516,1.32812 -0.3711,3.49609 h 19.0235 v -1.875 q 0,-1.40625 -0.3321,-2.32422 -0.3125,-0.9375 -1.25,-1.46484 -0.9375,-0.54688 -2.7734,-0.76172 -1.8164,-0.21484 -4.8242,-0.21484 z"
         id="path38225"
         style="fill:#000000" />
      <path
         d="m 1288.6664,-224.65379 q -3.4375,0 -5.5078,-0.68359 -2.0703,-0.70312 -3.0078,-2.46094 -0.918,-1.77734 -0.918,-4.98047 v -20.52734 h 3.75 v 6.15234 h 13.8477 v 3.08594 h -13.8477 v 11.28906 q 0,2.1875 0.3906,3.26172 0.4102,1.07422 1.6211,1.40625 1.2305,0.33203 3.6719,0.33203 2.168,0 3.3984,-0.13671 1.25,-0.13672 1.836,-0.72266 0.5859,-0.60547 0.7422,-1.97266 0.1562,-1.36718 0.1562,-3.84765 h 3.3203 q 0,3.24218 -0.4101,5.19531 -0.3906,1.95312 -1.4258,2.94922 -1.0156,0.99609 -2.8711,1.32812 -1.8359,0.33203 -4.7461,0.33203 z"
         id="path38227"
         style="fill:#000000" />
      <path
         d="m 1303.9789,-224.65379 v -22.5 h 3.75 v 3.10547 q 0.625,-0.99609 1.25,-1.66015 0.6445,-0.66407 1.6602,-1.05469 1.0351,-0.39063 2.7929,-0.54688 1.7578,-0.17578 4.6289,-0.17578 v 3.14453 q -3.8671,0 -5.9961,0.27344 -2.1093,0.27344 -3.0273,0.9375 -0.918,0.64453 -1.1133,1.79688 -0.1953,1.15234 -0.1953,2.92968 v 13.75 z"
         id="path38229"
         style="fill:#000000" />
      <path
         d="m 1322.8461,-224.65379 v -21.25 h 3.75 v 21.25 z m 0,-26.25 v -3.75 h 3.75 v 3.75 z"
         id="path38231"
         style="fill:#000000" />
      <path
         d="m 1357.3578,-231.33347 q 0,2.51953 -0.7617,3.96484 -0.7422,1.44531 -2.2852,2.10938 -1.5429,0.66406 -3.9453,0.83984 -2.3828,0.19531 -5.6836,0.19531 -3.7695,0 -6.4062,-0.39062 -2.6172,-0.3711 -4.2383,-1.54297 -1.6016,-1.19141 -2.3437,-3.55469 -0.7227,-2.36328 -0.7227,-6.30859 0,-3.82813 0.7031,-6.13282 0.7227,-2.30468 2.3242,-3.47656 1.6016,-1.17187 4.1993,-1.5625 2.6171,-0.39062 6.3867,-0.39062 4.3164,0 7.1484,0.60547 2.832,0.60546 4.2188,2.30468 1.4062,1.69922 1.4062,4.98047 v 4.82422 h -22.6172 q 0.02,2.5 0.3516,4.00391 0.332,1.5039 1.3281,2.26562 0.9961,0.76172 2.9688,1.01563 1.9922,0.23437 5.2929,0.23437 2.9688,0 4.7852,-0.11719 1.8359,-0.11718 2.7734,-0.50781 0.9571,-0.41015 1.2891,-1.21094 0.332,-0.80078 0.332,-2.14843 z m -12.7734,-13.125 q -3.1836,0 -5.1367,0.23437 -1.9336,0.23438 -2.9493,0.91797 -1.0156,0.66406 -1.3867,1.99219 -0.3515,1.32812 -0.3711,3.49609 h 19.0235 v -1.875 q 0,-1.40625 -0.3321,-2.32422 -0.3125,-0.9375 -1.25,-1.46484 -0.9375,-0.54688 -2.7734,-0.76172 -1.8164,-0.21484 -4.8242,-0.21484 z"
         id="path38233"
         style="fill:#000000" />
      <path
         d="m 1372.7094,-224.65379 -11.7578,-22.5 h 4.414 l 9.8438,19.6875 h 0.039 l 10.0391,-19.6875 h 4.1797 l -11.7578,22.5 z"
         id="path38235"
         style="fill:#000000" />
      <path
         d="m 1403.8422,-224.2241 q -4.043,0 -6.6797,-0.42969 -2.6172,-0.41015 -3.9062,-1.83593 -1.2696,-1.42578 -1.2696,-4.4336 0,-3.0664 1.1914,-4.49218 1.211,-1.44532 3.8086,-1.875 2.6172,-0.42969 6.8555,-0.42969 3.4375,0 5.7617,0.15625 2.3242,0.15625 4.1602,0.54687 -0.039,-2.59765 -0.3516,-4.08203 -0.3125,-1.5039 -1.1719,-2.22656 -0.8593,-0.72266 -2.5195,-0.91797 -1.6406,-0.21484 -4.375,-0.21484 -3.125,0 -4.9023,0.13672 -1.7579,0.13671 -2.5586,0.48828 -0.8008,0.35156 -1.0157,1.01562 -0.1953,0.66406 -0.1953,1.71875 h -3.75 q 0,-2.10937 0.5664,-3.39844 0.586,-1.28906 1.9727,-1.95312 1.3867,-0.66406 3.789,-0.89844 2.4219,-0.23437 6.0938,-0.23437 3.9453,0 6.3477,0.50781 2.4218,0.50781 3.6718,1.83594 1.2696,1.30859 1.6992,3.67187 0.4493,2.36328 0.4493,6.09375 v 10.82031 h -3.75 v -1.54296 q -0.6641,0.70312 -1.836,1.13281 -1.1718,0.42969 -3.125,0.625 -1.9336,0.21484 -4.9609,0.21484 z m 0,-3.04687 q 3.3398,0 5.332,-0.0781 1.9922,-0.0781 2.9688,-0.42969 0.9961,-0.35156 1.3086,-1.13281 0.3125,-0.78125 0.3125,-2.1875 v -3.45703 l -9.9219,-0.11719 q -2.6367,-0.0391 -4.2578,0.0781 -1.6016,0.0976 -2.4414,0.46875 -0.8399,0.35156 -1.1328,1.13281 -0.2735,0.76172 -0.2735,2.07031 0,1.26953 0.2735,2.01172 0.2929,0.74219 1.1328,1.09375 0.8398,0.35156 2.4414,0.44922 1.6211,0.0977 4.2578,0.0977 z"
         id="path38237"
         style="fill:#000000" />
      <path
         d="m 1423.6859,-224.65379 v -30 h 3.75 v 30 z"
         id="path38239"
         style="fill:#000000" />
      <path
         d="m 1478.2367,-233.32566 q 0,-1.73828 -0.2734,-2.73438 -0.2735,-0.99609 -1.2305,-1.46484 -0.957,-0.48828 -2.9687,-0.625 -2.0118,-0.15625 -5.5078,-0.21484 l -10.8594,-0.15625 q -4.0235,-0.0586 -6.4649,-0.48828 -2.4414,-0.42969 -3.6914,-1.34766 -1.25,-0.9375 -1.6797,-2.5 -0.4101,-1.5625 -0.4101,-3.90625 0,-2.55859 0.5664,-4.21875 0.5859,-1.66016 2.0898,-2.59766 1.5235,-0.9375 4.2969,-1.30859 2.7734,-0.39063 7.168,-0.39063 h 8.3594 q 3.9843,0 6.6406,0.25391 2.6562,0.25391 4.2187,1.17188 1.5625,0.91796 2.2266,2.85156 0.6836,1.93359 0.6836,5.3125 h -3.75 q 0,-2.61719 -0.5078,-3.94531 -0.4883,-1.34766 -1.6407,-1.83594 -1.1328,-0.48828 -3.0664,-0.52735 -1.9336,-0.0391 -4.8046,-0.0391 h -8.1641 q -3.4961,0 -5.6055,0.13672 -2.0898,0.13672 -3.164,0.625 -1.0743,0.48828 -1.4454,1.5625 -0.3515,1.07422 -0.3515,2.94922 0,1.58203 0.2539,2.53906 0.2539,0.95703 1.1328,1.46485 0.8984,0.48828 2.7539,0.68359 1.8555,0.17578 5.0586,0.21484 l 11.6406,0.15625 q 4.1016,0.0586 6.543,0.48828 2.4609,0.41016 3.6719,1.34766 1.2304,0.9375 1.6211,2.53906 0.4101,1.58203 0.4101,4.00391 0,2.63672 -0.5078,4.43359 -0.4883,1.77735 -1.9141,2.85157 -1.4257,1.07421 -4.121,1.54296 -2.6954,0.46875 -7.0899,0.46875 h -9.1406 q -4.0039,0 -6.7188,-0.35156 -2.7148,-0.35156 -4.3359,-1.40625 -1.6016,-1.07422 -2.3047,-3.18359 -0.7031,-2.10938 -0.7031,-5.625 h 3.75 q 0,2.7539 0.4492,4.25781 0.4492,1.50391 1.5625,2.16797 1.1328,0.64453 3.1445,0.78125 2.0313,0.11719 5.1563,0.11719 h 8.9453 q 3.4961,0 5.5273,-0.21485 2.0313,-0.23437 3.0079,-0.85937 0.9765,-0.64453 1.25,-1.83594 0.2929,-1.19141 0.2929,-3.14453 z"
         id="path38241"
         style="fill:#000000" />
      <path
         d="m 1490.4047,-217.15379 v -3.125 q 2.0117,0 3.3203,-0.0976 1.3281,-0.0781 2.207,-0.48828 0.8985,-0.39063 1.6016,-1.28907 0.7227,-0.89843 1.5039,-2.5 h -1.25 l -12.5,-22.5 h 4.2969 l 10.7031,19.70704 9.0039,-19.70704 h 4.3945 l -11.4062,23.75 q -0.7617,1.58204 -1.582,2.75391 -0.8008,1.17188 -2.0313,1.95313 -1.2109,0.78125 -3.1836,1.15234 -1.9726,0.39062 -5.0781,0.39062 z"
         id="path38243"
         style="fill:#000000" />
      <path
         d="m 1530.2289,-224.2241 q -4.1016,0 -6.6016,-0.27344 -2.4804,-0.27343 -3.7695,-1.01562 -1.2695,-0.74219 -1.7187,-2.10938 -0.4297,-1.36718 -0.4297,-3.55468 h 3.5937 q 0,1.23047 0.1758,1.99218 0.1758,0.74219 0.9961,1.15235 0.8203,0.39062 2.6563,0.54687 1.8554,0.13672 5.1953,0.13672 3.5351,0 5.4882,-0.13672 1.9727,-0.15625 2.8321,-0.54687 0.8594,-0.41016 1.0351,-1.17188 0.1953,-0.76172 0.1953,-2.01172 0,-1.52343 -0.2734,-2.28515 -0.2734,-0.76172 -1.2891,-1.01563 -1.0156,-0.27343 -3.2421,-0.29297 l -8.9454,-0.0976 q -3.457,-0.0391 -5.2734,-0.58594 -1.8164,-0.54687 -2.4805,-1.91406 -0.664,-1.38672 -0.664,-3.92578 0,-2.36328 0.7226,-3.65235 0.7422,-1.28906 2.3047,-1.83593 1.5625,-0.54688 4.0625,-0.64454 2.5,-0.11718 6.0352,-0.11718 4.1601,0 6.6015,0.2539 2.461,0.25391 3.6719,0.95703 1.2305,0.70313 1.6016,2.05079 0.3906,1.32812 0.3906,3.47656 h -3.5937 q 0,-1.26953 -0.1758,-1.99219 -0.1758,-0.74219 -0.9571,-1.07422 -0.7617,-0.35156 -2.5,-0.44922 -1.7187,-0.0976 -4.8437,-0.0976 -3.5547,0 -5.5274,0.0781 -1.9726,0.0781 -2.8515,0.3711 -0.8789,0.29296 -1.0742,0.9375 -0.1953,0.625 -0.1953,1.73828 0,1.13281 0.1171,1.79687 0.1368,0.64453 0.6836,0.97656 0.5469,0.33204 1.7774,0.44922 1.25,0.0977 3.4765,0.11719 l 7.7149,0.0781 q 3.4765,0.0391 5.2734,0.58593 1.8164,0.52735 2.461,1.97266 0.664,1.42578 0.664,4.14062 0,2.44141 -0.7226,3.84766 -0.7032,1.40625 -2.2657,2.08984 -1.5625,0.66407 -4.1211,0.85938 -2.539,0.19531 -6.2109,0.19531 z"
         id="path38245"
         style="fill:#000000" />
      <path
         d="m 1558.9594,-224.65379 q -3.4375,0 -5.5078,-0.68359 -2.0703,-0.70312 -3.0078,-2.46094 -0.918,-1.77734 -0.918,-4.98047 v -20.52734 h 3.75 v 6.15234 h 13.8476 v 3.08594 h -13.8476 v 11.28906 q 0,2.1875 0.3906,3.26172 0.4102,1.07422 1.6211,1.40625 1.2305,0.33203 3.6719,0.33203 2.1679,0 3.3984,-0.13671 1.25,-0.13672 1.836,-0.72266 0.5859,-0.60547 0.7421,-1.97266 0.1563,-1.36718 0.1563,-3.84765 h 3.3203 q 0,3.24218 -0.4102,5.19531 -0.3906,1.95312 -1.4257,2.94922 -1.0157,0.99609 -2.8711,1.32812 -1.836,0.33203 -4.7461,0.33203 z"
         id="path38247"
         style="fill:#000000" />
      <path
         d="m 1598.393,-231.33347 q 0,2.51953 -0.7617,3.96484 -0.7422,1.44531 -2.2852,2.10938 -1.543,0.66406 -3.9453,0.83984 -2.3828,0.19531 -5.6836,0.19531 -3.7695,0 -6.4063,-0.39062 -2.6171,-0.3711 -4.2382,-1.54297 -1.6016,-1.19141 -2.3438,-3.55469 -0.7226,-2.36328 -0.7226,-6.30859 0,-3.82813 0.7031,-6.13282 0.7226,-2.30468 2.3242,-3.47656 1.6016,-1.17187 4.1992,-1.5625 2.6172,-0.39062 6.3867,-0.39062 4.3164,0 7.1485,0.60547 2.832,0.60546 4.2187,2.30468 1.4063,1.69922 1.4063,4.98047 v 4.82422 h -22.6172 q 0.02,2.5 0.3515,4.00391 0.3321,1.5039 1.3282,2.26562 0.9961,0.76172 2.9687,1.01563 1.9922,0.23437 5.293,0.23437 2.9687,0 4.7851,-0.11719 1.836,-0.11718 2.7735,-0.50781 0.957,-0.41015 1.289,-1.21094 0.3321,-0.80078 0.3321,-2.14843 z m -12.7735,-13.125 q -3.1836,0 -5.1367,0.23437 -1.9336,0.23438 -2.9492,0.91797 -1.0156,0.66406 -1.3867,1.99219 -0.3516,1.32812 -0.3711,3.49609 h 19.0234 v -1.875 q 0,-1.40625 -0.332,-2.32422 -0.3125,-0.9375 -1.25,-1.46484 -0.9375,-0.54688 -2.7734,-0.76172 -1.8165,-0.21484 -4.8243,-0.21484 z"
         id="path38249"
         style="fill:#000000" />
      <path
         d="m 1603.3148,-224.65379 v -22.5 h 3.75 v 2.79297 q 0.8399,-1.13281 2.0118,-1.89453 1.1718,-0.76172 2.9882,-1.13281 1.836,-0.39063 4.6875,-0.39063 3.5352,0 5.7618,0.95704 2.2265,0.95703 3.2812,3.30078 0.957,-1.48438 2.3047,-2.42188 1.3477,-0.95703 3.3789,-1.38672 2.0508,-0.44922 5.0391,-0.44922 3.5547,0 5.7812,0.97657 2.2266,0.95703 3.2617,3.28125 1.0547,2.32422 1.0547,6.36718 v 12.5 h -3.75 v -12.5 q 0,-3.08593 -0.6445,-4.6875 -0.6445,-1.62109 -2.1484,-2.20703 -1.4844,-0.60547 -4.0235,-0.60547 -4.9804,0 -7.1094,1.46485 -2.1093,1.46484 -2.1093,4.78515 v -0.0195 q 0.02,0.60547 0.02,1.26953 v 12.5 h -3.75 v -12.5 q 0,-3.08593 -0.6445,-4.6875 -0.6446,-1.62109 -2.1485,-2.20703 -1.4843,-0.60547 -4.0234,-0.60547 -4.9805,0 -7.1094,1.46485 -2.1094,1.46484 -2.1094,4.78515 v 13.75 z"
         id="path38251"
         style="fill:#000000" />
      <g
         style="fill:#c87137;fill-opacity:1"
         id="g39700"
         transform="matrix(8.7630811,0,0,8.1995812,-58.315414,-453.43304)">
        <path
           d="M 13.409265,11.072801 C 21.149257,5.8297295 14.338051,-5.9550735 5.9518642,-1.978533 -2.4343229,1.998008 2.3797015,14.729829 11.33757,12.055153 l -0.0011,-3.9e-4 c 0.01717,0.05541 0.03731,0.10941 0.0622,0.163876 l 7.258012,13.795464 c 0.720354,1.369195 2.759476,0.405593 2.097603,-0.99281 L 13.496283,11.225829 c -0.02494,-0.05349 -0.05391,-0.105013 -0.08663,-0.15412 z M 15.190833,6.9737237 C 14.005761,10.292396 10.354759,12.022016 7.0360884,10.836945 3.7174179,9.6518734 1.9877915,6.0008739 3.1728629,2.682201 c 1.185072,-3.3186729 4.8360739,-5.0482921 8.1547441,-3.8632209 3.318672,1.18507151 5.048298,4.8360706 3.863226,8.1547436 z"
           id="path39691"
           sodipodi:nodetypes="cscccsccccsssss"
           style="fill:#c87137;fill-opacity:1;stroke-width:1.16011" />
        <path
           d="M 22.284868,18.091483 C 29.639573,23.862584 38.784122,13.780356 32.438383,7.0074249 26.092642,0.23449431 15.436845,8.7037394 20.717239,16.418321 l 3.8e-5,-0.0012 c -0.04753,0.03326 -0.09281,0.06892 -0.137082,0.109248 L 9.6571984,27.647637 c -1.084103,1.103777 0.4557326,2.751639 1.5854936,1.694643 L 22.165691,18.221049 c 0.04333,-0.04007 0.08355,-0.08338 0.120341,-0.129523 z m 4.447204,0.445879 c -3.522008,-0.115953 -6.283155,-3.065096 -6.167207,-6.587102 0.115953,-3.5220056 3.065093,-6.2831589 6.587101,-6.1672082 3.522009,0.1159507 6.283156,3.0650966 6.167205,6.5871012 -0.115953,3.522007 -3.065091,6.28316 -6.587099,6.167209 z"
           id="path41595"
           sodipodi:nodetypes="cscccsccccsssss"
           style="fill:#c87137;fill-opacity:1;stroke-width:1.16011" />
      </g>
    </g>
  </g>
</svg>
